<mxfile modified="2019-10-15T09:46:49.637Z" host="www.draw.io" agent="Mozilla/5.0 (Windows NT 10.0; Win64; x64) AppleWebKit/537.36 (KHTML, like Gecko) Chrome/76.0.3809.132 Safari/537.36" etag="b3wOeNJIihbfty3F-e9K" version="12.1.1" type="github" pages="1">
  <diagram id="MJuLWJjy4fnVhtMjruGv" name="Page-1">
    <mxGraphModel dx="1422" dy="723" grid="1" gridSize="10" guides="1" tooltips="1" connect="1" arrows="1" fold="1" page="1" pageScale="1" pageWidth="827" pageHeight="1169" math="0" shadow="0">
      <root>
        <mxCell id="0"/>
        <mxCell id="1" parent="0"/>
        <mxCell id="6j2legpFIzO9h5dVgZwm-115" value="" style="shape=ext;double=1;rounded=1;whiteSpace=wrap;html=1;strokeWidth=1;fontSize=18;fontColor=#000000;" parent="1" vertex="1">
          <mxGeometry x="120" y="1270" width="720" height="190" as="geometry"/>
        </mxCell>
        <mxCell id="6j2legpFIzO9h5dVgZwm-94" value="0" style="rounded=1;whiteSpace=wrap;html=1;strokeWidth=1;fontSize=18;fillColor=#fff2cc;strokeColor=#d6b656;" parent="1" vertex="1">
          <mxGeometry x="140" y="1290" width="70" height="150" as="geometry"/>
        </mxCell>
        <mxCell id="6j2legpFIzO9h5dVgZwm-95" value="1" style="rounded=1;whiteSpace=wrap;html=1;strokeWidth=1;fontSize=18;fillColor=#fff2cc;strokeColor=#d6b656;" parent="1" vertex="1">
          <mxGeometry x="215" y="1290" width="70" height="150" as="geometry"/>
        </mxCell>
        <mxCell id="6j2legpFIzO9h5dVgZwm-96" value="2" style="rounded=1;whiteSpace=wrap;html=1;strokeWidth=1;fontSize=18;fillColor=#fff2cc;strokeColor=#d6b656;" parent="1" vertex="1">
          <mxGeometry x="290" y="1290" width="70" height="150" as="geometry"/>
        </mxCell>
        <mxCell id="6j2legpFIzO9h5dVgZwm-97" value="3" style="rounded=1;whiteSpace=wrap;html=1;strokeWidth=1;fontSize=18;fillColor=#fff2cc;strokeColor=#d6b656;" parent="1" vertex="1">
          <mxGeometry x="365" y="1290" width="70" height="150" as="geometry"/>
        </mxCell>
        <mxCell id="6j2legpFIzO9h5dVgZwm-98" value="4" style="rounded=1;whiteSpace=wrap;html=1;strokeWidth=1;fontSize=18;fillColor=#fff2cc;strokeColor=#d6b656;" parent="1" vertex="1">
          <mxGeometry x="440" y="1290" width="70" height="150" as="geometry"/>
        </mxCell>
        <mxCell id="6j2legpFIzO9h5dVgZwm-99" value="5" style="rounded=1;whiteSpace=wrap;html=1;strokeWidth=1;fontSize=18;fontColor=#000000;" parent="1" vertex="1">
          <mxGeometry x="515" y="1290" width="70" height="150" as="geometry"/>
        </mxCell>
        <mxCell id="6j2legpFIzO9h5dVgZwm-100" value="6" style="rounded=1;whiteSpace=wrap;html=1;strokeWidth=1;fontSize=18;fontColor=#000000;" parent="1" vertex="1">
          <mxGeometry x="590" y="1290" width="70" height="150" as="geometry"/>
        </mxCell>
        <mxCell id="6j2legpFIzO9h5dVgZwm-101" value="7" style="rounded=1;whiteSpace=wrap;html=1;strokeWidth=1;fontSize=18;fontColor=#000000;" parent="1" vertex="1">
          <mxGeometry x="665" y="1290" width="70" height="150" as="geometry"/>
        </mxCell>
        <mxCell id="6j2legpFIzO9h5dVgZwm-102" value="8" style="rounded=1;whiteSpace=wrap;html=1;strokeWidth=1;fontSize=18;fontColor=#000000;dashed=1;" parent="1" vertex="1">
          <mxGeometry x="740" y="1290" width="70" height="150" as="geometry"/>
        </mxCell>
        <mxCell id="6j2legpFIzO9h5dVgZwm-103" value="日志文件起始处&lt;br&gt;LogStartOffset" style="text;html=1;strokeColor=none;fillColor=none;align=center;verticalAlign=middle;whiteSpace=wrap;rounded=0;fontSize=18;fontColor=#000000;" parent="1" vertex="1">
          <mxGeometry x="107.5" y="1159" width="135" height="20" as="geometry"/>
        </mxCell>
        <mxCell id="6j2legpFIzO9h5dVgZwm-106" value="" style="endArrow=classic;html=1;strokeColor=#000000;fontSize=18;fontColor=#000000;entryX=0.5;entryY=0;entryDx=0;entryDy=0;" parent="1" target="6j2legpFIzO9h5dVgZwm-94" edge="1">
          <mxGeometry width="50" height="50" relative="1" as="geometry">
            <mxPoint x="175" y="1190" as="sourcePoint"/>
            <mxPoint x="380" y="1150" as="targetPoint"/>
          </mxGeometry>
        </mxCell>
        <mxCell id="6j2legpFIzO9h5dVgZwm-109" value="HW" style="text;html=1;strokeColor=none;fillColor=none;align=center;verticalAlign=middle;whiteSpace=wrap;rounded=0;fontSize=18;fontColor=#000000;" parent="1" vertex="1">
          <mxGeometry x="482.5" y="1159" width="135" height="20" as="geometry"/>
        </mxCell>
        <mxCell id="6j2legpFIzO9h5dVgZwm-110" value="" style="endArrow=classic;html=1;strokeColor=#000000;fontSize=18;fontColor=#000000;entryX=0.5;entryY=0;entryDx=0;entryDy=0;" parent="1" edge="1">
          <mxGeometry width="50" height="50" relative="1" as="geometry">
            <mxPoint x="549.5" y="1190" as="sourcePoint"/>
            <mxPoint x="549.5" y="1290" as="targetPoint"/>
            <Array as="points">
              <mxPoint x="549.5" y="1240"/>
            </Array>
          </mxGeometry>
        </mxCell>
        <mxCell id="6j2legpFIzO9h5dVgZwm-111" value="LEO" style="text;html=1;strokeColor=none;fillColor=none;align=center;verticalAlign=middle;whiteSpace=wrap;rounded=0;fontSize=18;fontColor=#000000;" parent="1" vertex="1">
          <mxGeometry x="707.5" y="1159" width="135" height="20" as="geometry"/>
        </mxCell>
        <mxCell id="6j2legpFIzO9h5dVgZwm-112" value="" style="endArrow=classic;html=1;strokeColor=#000000;fontSize=18;fontColor=#000000;entryX=0.5;entryY=0;entryDx=0;entryDy=0;" parent="1" edge="1">
          <mxGeometry width="50" height="50" relative="1" as="geometry">
            <mxPoint x="774.5" y="1190" as="sourcePoint"/>
            <mxPoint x="774.5" y="1290" as="targetPoint"/>
            <Array as="points">
              <mxPoint x="774.5" y="1240"/>
            </Array>
          </mxGeometry>
        </mxCell>
        <mxCell id="6j2legpFIzO9h5dVgZwm-113" value="" style="shape=curlyBracket;whiteSpace=wrap;html=1;rounded=1;strokeWidth=1;fontSize=18;fontColor=#000000;rotation=-90;" parent="1" vertex="1">
          <mxGeometry x="310" y="1340" width="30" height="290" as="geometry"/>
        </mxCell>
        <mxCell id="6j2legpFIzO9h5dVgZwm-114" value="可消费区间" style="text;html=1;strokeColor=none;fillColor=none;align=center;verticalAlign=middle;whiteSpace=wrap;rounded=0;fontSize=18;fontColor=#000000;" parent="1" vertex="1">
          <mxGeometry x="257.5" y="1505" width="135" height="20" as="geometry"/>
        </mxCell>
      </root>
    </mxGraphModel>
  </diagram>
</mxfile>
